<?xml version="1.0" encoding="utf-8"?><svg xmlns="http://www.w3.org/2000/svg" xmlns:xlink="http://www.w3.org/1999/xlink"><defs><svg viewBox="0 0 448 512" id="blue-shadow" xmlns="http://www.w3.org/2000/svg"><path d="m477.947 656.519-213.915-51.387-89.368-64.663 26.563-170.512 175.422-19.566-1.608-121.744 202.268-54.255 130.294 31.299-82.437 266.106-127.273 33.19-19.946 151.532Z"/></svg><svg viewBox="0 0 24 24" id="dzen" xmlns="http://www.w3.org/2000/svg"><path transform="matrix(.44 0 0 .44 1 1)" d="M46.894 23.986h.011a.998.998 0 0 0 .996-1.091C46.897 11.852 38.154 3.106 27.11 2.1a1 1 0 0 0-1.091 1.008c.174 14.676 2.11 20.673 20.875 20.878zm0 2.028c-18.765.205-20.7 6.202-20.874 20.878a1 1 0 0 0 1.091 1.008c11.044-1.006 19.787-9.751 20.79-20.795a.999.999 0 0 0-.262-.769 1.055 1.055 0 0 0-.745-.322zM22.823 2.105C11.814 3.14 3.099 11.884 2.1 22.897a.999.999 0 0 0 .996 1.09h.012c18.703-.215 20.634-6.209 20.81-20.875a1.003 1.003 0 0 0-1.095-1.007zM3.107 26.013c-.311-.035-.555.113-.746.321a1.003 1.003 0 0 0-.262.769c.999 11.013 9.715 19.757 20.724 20.792a1.002 1.002 0 0 0 1.094-1.008c-.176-14.665-2.106-20.659-20.81-20.874z"/></svg><svg viewBox="0 0 512 512" id="folder-directory" xmlns="http://www.w3.org/2000/svg"><path d="m224 64 64 64h224v352H0V64z"/></svg><svg viewBox="0 0 512 512" id="folder-open-directory" xmlns="http://www.w3.org/2000/svg"><path d="m416 480 96-256H96L0 480zM64 192 0 480V64h144l64 64h208v64z"/></svg><svg viewBox="0 0 448 512" id="green-shadow" xmlns="http://www.w3.org/2000/svg"><path d="m673.469 258.482 16.515 219.379-34.225 104.865-170.464 26.871-72.292-161.027-115.415 38.773-113.529-175.975L174 177.746l278.567-2.918 70.532 111.018 150.37-27.364Z"/></svg></defs></svg>