<svg xmlns="http://www.w3.org/2000/svg"><symbol viewBox="0 0 448 512" id="blue-shadow"><path d="M477.947 656.519l-213.915-51.387-89.368-64.663 26.563-170.512 175.422-19.566-1.608-121.744 202.268-54.255 130.294 31.299-82.437 266.106-127.273 33.19-19.946 151.532z" fill="#4D5BCE"/></symbol><symbol viewBox="0 0 448 512" id="green-shadow"><path d="M673.469 258.482l16.515 219.379-34.225 104.865-170.464 26.871-72.292-161.027-115.415 38.773-113.529-175.975L174 177.746l278.567-2.918 70.532 111.018 150.37-27.364z" fill="#00717e"/></symbol><symbol viewBox="0 0 512 512" id="folder-directory"><path d="M224 64l64 64h224v352H0V64z"/></symbol><symbol viewBox="0 0 512 512" id="folder-open-directory"><path d="M416 480l96-256H96L0 480zM64 192L0 480V64h144l64 64h208v64z"/></symbol></svg>