<?xml version="1.0" encoding="utf-8"?><svg xmlns="http://www.w3.org/2000/svg" xmlns:xlink="http://www.w3.org/1999/xlink"><defs><svg viewBox="0 0 882 831" id="blue-shadow" xmlns="http://www.w3.org/2000/svg"><g opacity=".4" filter="url(#aa)"><path d="m477.947 656.519-213.915-51.387-89.368-64.663 26.563-170.512 175.422-19.566-1.608-121.744 202.268-54.255 130.294 31.299-82.437 266.106-127.273 33.19-19.946 151.532Z"/></g><defs><filter id="aa" x=".664" y=".392" width="880.938" height="830.128" filterUnits="userSpaceOnUse" color-interpolation-filters="sRGB"><feFlood flood-opacity="0" result="BackgroundImageFix"/><feBlend in="SourceGraphic" in2="BackgroundImageFix" result="shape"/><feGaussianBlur stdDeviation="87" result="effect1_foregroundBlur_74_1520"/></filter></defs></svg><svg viewBox="0 0 864 784" id="green-shadow" xmlns="http://www.w3.org/2000/svg"><g opacity=".4" filter="url(#ba)"><path d="m673.469 258.482 16.515 219.379-34.225 104.865-170.464 26.871-72.292-161.027-115.415 38.773-113.529-175.975L174 177.746l278.567-2.918 70.532 111.018 150.37-27.364Z"/></g><defs><filter id="ba" x="0" y=".828" width="863.983" height="782.77" filterUnits="userSpaceOnUse" color-interpolation-filters="sRGB"><feFlood flood-opacity="0" result="BackgroundImageFix"/><feBlend in="SourceGraphic" in2="BackgroundImageFix" result="shape"/><feGaussianBlur stdDeviation="87" result="effect1_foregroundBlur_74_1521"/></filter></defs></svg><svg viewBox="0 0 NaN NaN" id="white-shadow"><path d="M580.6 222.9c-60 0-114.6 17.6-155.6 46.4-41-28.8-95.6-46.4-155.6-46.4-127.1 0-230.1 78.9-230.1 176.2s103 176.2 230.1 176.2c60 0 114.6-17.6 155.6-46.4 41 28.8 95.6 46.4 155.6 46.4 127.1 0 230.1-78.9 230.1-176.2s-103-176.2-230.1-176.2z"/></svg></defs></svg>