<?xml version="1.0" encoding="utf-8"?>
<!-- Generator: Adobe Illustrator 27.9.0, SVG Export Plug-In . SVG Version: 6.00 Build 0)  -->
<svg version="1.1" id="Слой_1" xmlns="http://www.w3.org/2000/svg" xmlns:xlink="http://www.w3.org/1999/xlink" x="0px" y="0px"
	 viewBox="0 0 201.4 226.1" style="enable-background:new 0 0 201.4 226.1;" xml:space="preserve">
<style type="text/css">
	.st0{fill:#F4F0D0;}
	.st1{fill:#EC2400;}
</style>
<g>
	<path class="st0" d="M115.4,112.1l32.1-24c0.5-0.4,1.2-0.6,2-0.6l37.2-0.3V44.7c0-3.8-1.7-7.3-4.7-9.6L140.3,3
		c-2.1-1.6-4.7-2.5-7.4-2.5H12.5C5.9,0.5,0.5,5.9,0.5,12.6L0,213.5c0,6.7,5.4,12.1,12.1,12.1h162.5c6.7,0,12.1-5.4,12.1-12.1v-69.3
		h-35.6c-0.8,0-1.5-0.3-2.1-0.7l-33.8-27.1C113.9,115.2,113.9,113.2,115.4,112.1z M17.7,23.8h54.9v3H17.7V23.8z M17.7,46.1h116.7
		v2.8H17.7V46.1z M17.7,89.8H100v3H17.7V89.8z M17.7,112.7H81v3H17.7V112.7z M17.7,135.7h95.6v3H17.7V135.7z M102.8,204.6H17.7v-3
		h85.1V204.6z M118.6,183.2H17.7v-3h100.9V183.2z M133.1,158.7v3H17.7v-3H133.1z M17.7,70.8V68h99.2v2.8H17.7z"/>
	<path class="st1" d="M200.9,89.9v51.5c0,1.5-1.4,2.8-3.1,2.8h-46.6c-0.8,0-1.5-0.3-2.1-0.7l-33.8-27.1c-1.4-1.1-1.4-3.1,0.1-4.2
		l32.1-24c0.5-0.4,1.2-0.6,2-0.6l37.2-0.3l11-0.1C199.5,87.1,200.9,88.4,200.9,89.9z"/>
</g>
</svg>
