<svg xmlns="http://www.w3.org/2000/svg" viewBox="0 0 201.4 226.1"><path d="M115.4 112.1l32.1-24c.5-.4 1.2-.6 2-.6l37.2-.3V44.7c0-3.8-1.7-7.3-4.7-9.6L140.3 3c-2.1-1.6-4.7-2.5-7.4-2.5H12.5C5.9.5.5 5.9.5 12.6L0 213.5c0 6.7 5.4 12.1 12.1 12.1h162.5c6.7 0 12.1-5.4 12.1-12.1v-69.3h-35.6c-.8 0-1.5-.3-2.1-.7l-33.8-27.1c-1.3-1.2-1.3-3.2.2-4.3zM17.7 23.8h54.9v3H17.7v-3zm0 22.3h116.7v2.8H17.7v-2.8zm0 43.7H100v3H17.7v-3zm0 22.9H81v3H17.7v-3zm0 23h95.6v3H17.7v-3zm85.1 68.9H17.7v-3h85.1v3zm15.8-21.4H17.7v-3h100.9v3zm14.5-24.5v3H17.7v-3h115.4zM17.7 70.8V68h99.2v2.8H17.7z" fill="#f4f0d0"/><path d="M200.9 89.9v51.5c0 1.5-1.4 2.8-3.1 2.8h-46.6c-.8 0-1.5-.3-2.1-.7l-33.8-27.1c-1.4-1.1-1.4-3.1.1-4.2l32.1-24c.5-.4 1.2-.6 2-.6l37.2-.3 11-.1c1.8-.1 3.2 1.2 3.2 2.7z" fill="#ec2400"/></svg>